<?xml version="1.0" encoding="UTF-8"?>
<svg width="135mm" height="103mm" version="1.1" viewBox="0 0 135 103" xmlns="http://www.w3.org/2000/svg">
  <g transform="translate(0,-194)">
    <g transform="matrix(1 0 0 1 -37.234 100.01)">
      <rect x="142.03" y="149.47" width="11.117" height="21.271" rx="7.9" ry="11.613" style="fill-opacity:.94118;fill-rule:evenodd;fill:#f56a14;paint-order:normal"/>
      <path d="m122.24 163.68 31.718-.27262s2.5759-1.4278 3.6353-3.5444c.65208-1.3029.78792-2.9995.27264-4.3623-.30304-.80146-.9642-1.7413-1.8176-1.8176-11.862-1.0609-37.443-2.7264-37.443-2.7264l.45441-5.5438c9.9529-.80796 17.624-4.8167 17.624-4.8167l-13.014-24.694s-3.2295-7.9954-15.515-7.9608c-12.285.0346-14.853 9.3369-14.853 9.3369l-6.1571 30.635c-25.429 5.8371-35.216 20.656-35.216 48.069m70.311-32.302 4.7258 32.172-12.087.0909-6.1588-17.658-17.487 11.686 5.9238 5.8806-45.228.12983" style="fill-rule:evenodd;fill:#76431c;paint-order:normal"/>
      <path d="m113.37 120.43s-1.2176 15.711-6.1843 20.08c-2.6072 2.2934-7.3579 3.5433-10.282 1.6708-5.1294-3.2846-4.3548-18.666-4.3548-18.666l1.3013 1.9239 1.3013-2.3095 1.3013 1.9239 1.3013-2.3095 1.3013 1.9239 1.3013-2.3095 1.3013 1.9239 1.3013-2.3094 1.3013 1.9239 1.3013-2.3095 1.3013 1.9239 1.3013-2.3095 1.3013 1.9239 1.3013-2.3094 1.3013 1.9239z" style="fill-rule:evenodd;fill:#35200d;paint-order:normal"/>
      <path d="m146.86 112.65s-.0932 4.8253 2.5223 6.7706c2.6155 1.9453 11.837.27285 11.837.27285m-34.369-12.266s.62053.81056 6.0407 2.3134c5.4202 1.5029 26.862 4.7555 26.862 4.7555s3.3264 4.4184.5132 14.409c-2.6466 9.3985-20.571 12.636-20.571 12.636s-13.006-6.0093-15.51-14.876c-2.5043-8.8665 2.6659-19.238 2.6659-19.238z" style="fill-rule:evenodd;fill:#35200d;paint-order:normal"/>
      <path d="m136.76 140.59-5.0799 2.1054-2.8094.19214 1.4239-4.0412-3.3386-.86619 1.953-2.9828-3.3386-.86619 1.953-2.9828-3.3386-.86619 1.953-2.9828-3.3386-.8662 1.953-2.9828c-.0253-7.6708-1.2153-3.2923-1.0063-7.5538z" style="fill-rule:evenodd;fill:#35200d;paint-order:normal"/>
      <path transform="scale(.26458)" d="m573.34 579.26v-.82812c0-9.4071-6.9927-16.98-15.678-16.98-1.0856 0-2.1448.11833-3.1671.34379-1.0223.22546-2.0078.55804-2.9462.98653s-1.8296.9529-2.6632 1.562-1.6099 1.3029-2.3182 2.0702c-.70833.7673-1.3488 1.6081-1.9111 2.5112-.56228.90308-1.0464 1.8684-1.4419 2.8849-.39554 1.0164-.70255 2.084-.91066 3.1913m-.31735 43.915v10.828c0 9.4071 6.9908 16.98 15.676 16.98s15.678-7.5733 15.678-16.98v-10.828m-15.511-78.264v20.266m-2.7488-135.16s-.35234 18.237 9.5332 25.59c9.8855 7.3524 44.738 1.0312 44.738 1.0312m37.207-2.1551c0 49.632-40.235 89.867-89.867 89.867s-89.867-40.235-89.867-89.867c-1e-5-49.632 40.235-89.867 89.867-89.867s89.867 40.235 89.867 89.867zm-495.24 158.12c-17.946 70.039.74305 96.454 44.128 103.23m231.06-253.57s-2.6018 55.381-21.374 71.893c-9.8538 8.6679-27.809 13.392-38.861 6.315-19.387-12.414-18.459-66.55-18.459-66.55l-18.459 89.381c-96.109 22.062-133.1 78.069-133.1 181.68m156.37-297.46s9.7042-35.158 56.137-35.289c46.432-.13077 58.638 30.088 58.638 30.088m12.056-32.031s2.3453 3.0635 22.831 8.7438c20.486 5.6802 101.53 17.973 101.53 17.973s12.572 16.699 1.9396 54.458c-10.003 35.522-77.75 47.76-77.75 47.76m-109.97 83.673 163.84-1.0304s9.7358-5.3966 13.74-13.396c2.4646-4.9242 2.9779-11.337 1.0304-16.487-1.1454-3.0291-3.6442-6.5813-6.8698-6.8698-44.832-4.0097-141.52-10.305-141.52-10.305l1.7175-20.953c37.617-3.0537 66.612-18.205 66.612-18.205m-116.07 112.32 33.662 96.864 45.684-.34356-17.861-121.59m-117.19 99.369 66.092-44.168m-65.686-47.988s17.58 16.17 15.285 37.44c-2.5668 23.79-34.177 36.753-34.177 36.753l40.875 40.188h-146.33" style="fill:none;paint-order:normal;stroke-linecap:round;stroke-linejoin:round;stroke-width:7.5591;stroke:#000"/>
      <path d="m146.86 112.65 2.5223 6.7706 11.837.27285-1.466-5.1971z" style="stroke-width:.29515px;stroke:#000"/>
    </g>
  </g>
</svg>
