<?xml version="1.0" encoding="UTF-8"?>
<svg width="220.78mm" height="63.903mm" version="1.1" viewBox="0 0 220.78 63.903" xmlns="http://www.w3.org/2000/svg"
     xmlns:xlink="http://www.w3.org/1999/xlink">
    <title>Full Stack with Benefits</title>
    <defs>
        <pattern id="fswbf" xlink:href="#fswbe" patternTransform="matrix(.43808 0 0 .3815 10.378 -43.046)"/>
        <pattern id="fswbe" xlink:href="#fswbd" patternTransform="matrix(.26458 0 0 .26458 -67.926 65.471)"/>
        <pattern id="fswbd" width="314.71609" height="322.77708"
                 patternTransform="matrix(.26458 0 0 .26458 -101.84 28.803)" patternUnits="userSpaceOnUse">
            <g transform="matrix(.52007 -.51414 .52007 .51414 44.362 159.06)">
                <path d="m110 83 28-4-28-1z" style="fill:#f46532;stroke-width:1.51;stroke:#f46532"/>
                <path d="m110 83 10 26 18-30z" style="fill:#fa6f30;stroke-width:1.51;stroke:#fa6f30"/>
                <path d="m138 79-21-53-7 52z" style="fill:#ea5d33;stroke-width:1.51;stroke:#ea5d33"/>
                <path d="m169 94-5-37-26 22z" style="fill:#f4862c;stroke-width:1.51;stroke:#f4862c"/>
                <path d="m120 109 49-15-31-15z" style="fill:#fd872a;stroke-width:1.51;stroke:#fd872a"/>
                <path d="m120 109 43 24 6-39z" style="fill:#ff9e22;stroke-width:1.51;stroke:#ff9e22"/>
                <path d="m91 119 28 10 1-20z" style="fill:#ff7b2d;stroke-width:1.51;stroke:#ff7b2d"/>
                <path d="m110 83-19 36 29-10z" style="fill:#ff6531;stroke-width:1.51;stroke:#ff6531"/>
                <path d="m53 94 38 25 19-36z" style="fill:#f54d35;stroke-width:1.51;stroke:#f54d35"/>
                <path d="m164 57-12-20-14 42z" style="fill:#ea7c2f;stroke-width:1.51;stroke:#ea7c2f"/>
                <path d="m152 37-35-11 21 53z" style="fill:#e36733;stroke-width:1.51;stroke:#e36733"/>
                <path d="m110 78-57 16 57-11z" style="fill:#f14836;stroke-width:1.51;stroke:#f14836"/>
                <path d="m119 129 44 4-43-24z" style="fill:#ff9a23;stroke-width:1.51;stroke:#ff9a23"/>
                <path d="m117 26-55 21 48 31z" style="fill:#e13537;stroke-width:1.51;stroke:#e13537"/>
                <path d="m62 47-9 47 57-16z" style="fill:#e23637;stroke-width:1.51;stroke:#e23637"/>
                <path d="m163 133 34-34-28-5z" style="fill:#ff9b23;stroke-width:1.51;stroke:#ff9b23"/>
                <path d="m169 94 46-21-51-16z" style="fill:#f3842c;stroke-width:1.51;stroke:#f3842c"/>
                <path d="m164 57-5-48-7 28z" style="fill:#dd7532;stroke-width:1.51;stroke:#dd7532"/>
                <path d="m152 37 7-28-42 17z" style="fill:#d66c35;stroke-width:1.51;stroke:#d66c35"/>
                <path d="m117 26-31-25-24 46z" style="fill:#ce2d3a;stroke-width:1.51;stroke:#ce2d3a"/>
                <path d="m219 13-60-4 5 48z" style="fill:#d87434;stroke-width:1.51;stroke:#d87434"/>
                <path d="m62 47-21 19 12 28z" style="fill:#d21f39;stroke-width:1.51;stroke:#d21f39"/>
                <path d="m149-33-63 34 31 25z" style="fill:#c74c3a;stroke-width:1.51;stroke:#c74c3a"/>
                <path d="m62 47-30-14 9 33z" style="fill:#c3013a;stroke-width:1.51;stroke:#c3013a"/>
                <path d="m197 99 18-26-46 21z" style="fill:#fb8c29;stroke-width:1.51;stroke:#fb8c29"/>
                <path d="m119 129 24 42 20-38z" style="fill:#ffb613;stroke-width:1.51;stroke:#ffb613"/>
                <path d="m163 133 68-6-34-28z" style="fill:#ffa61e;stroke-width:1.51;stroke:#ffa61e"/>
                <path d="m112 189 31-18-24-42z" style="fill:#ffab1b;stroke-width:1.51;stroke:#ffab1b"/>
                <path d="m112 189 7-60-28-10z" style="fill:#ff9525;stroke-width:1.51;stroke:#ff9525"/>
                <path d="m53 94 2 56 36-31z" style="fill:#ed5f33;stroke-width:1.51;stroke:#ed5f33"/>
                <path d="m41 66-8 43 20-15z" style="fill:#d82f38;stroke-width:1.51;stroke:#d82f38"/>
                <path d="m33 109 22 41-2-56z" style="fill:#e25235;stroke-width:1.51;stroke:#e25235"/>
                <path d="m86 1-34 11 10 35z" style="fill:#c01b3b;stroke-width:1.51;stroke:#c01b3b"/>
                <path d="m41 66-60 25 52 18z" style="fill:#cb2d3a;stroke-width:1.51;stroke:#cb2d3a"/>
                <path d="m52 12-20 21 30 14z" style="fill:#bc033b;stroke-width:1.51;stroke:#bc033b"/>
                <path d="m159 9-10-42-32 59z" style="fill:#c96838;stroke-width:1.51;stroke:#c96838"/>
                <path d="m219 13-52-27-8 23z" style="fill:#cb7137;stroke-width:1.51;stroke:#cb7137"/>
                <path d="m143 171 36 3-16-41z" style="fill:#ffc300;stroke-width:1.51;stroke:#ffc300"/>
                <path d="m197 99 49 16-31-42z" style="fill:#ff9028;stroke-width:1.51;stroke:#ff9028"/>
                <path d="m143 171 8 30 28-27z" style="fill:#ffc300;stroke-width:1.51;stroke:#ffc300"/>
                <path d="m55 150 57 39-21-70z" style="fill:#f98b2a;stroke-width:1.51;stroke:#f98b2a"/>
                <path d="m33 109-8 25 30 16z" style="fill:#dd6135;stroke-width:1.51;stroke:#dd6135"/>
                <path d="m65 184 38 13 9-8z" style="fill:#fd8e28;stroke-width:1.51;stroke:#fd8e28"/>
                <path d="m-2 148 27-14-44-43z" style="fill:#c8553a;stroke-width:1.51;stroke:#c8553a"/>
                <path d="m52 12-41-13 21 34z" style="fill:#a9083c;stroke-width:1.51;stroke:#a9083c"/>
                <path d="m86 1-34-9v20z" style="fill:#b4183c;stroke-width:1.51;stroke:#b4183c"/>
                <path d="m90-34-38 26 34 9z" style="fill:#b9233c;stroke-width:1.51;stroke:#b9233c"/>
                <path d="m167-14-18-19 10 42z" style="fill:#c97037;stroke-width:1.51;stroke:#c97037"/>
                <path d="m215 73 4-60-55 44z" style="fill:#e47730;stroke-width:1.51;stroke:#e47730"/>
                <path d="m167-14 23-34-41 15z" style="fill:#c97037;stroke-width:1.51;stroke:#c97037"/>
                <path d="m179 174 52-47-68 6z" style="fill:#ffbe08;stroke-width:1.51;stroke:#ffbe08"/>
                <path d="m215 73 33-35-29-25z" style="fill:#e17631;stroke-width:1.51;stroke:#e17631"/>
                <path d="m65 184 47 5-57-39z" style="fill:#f4862c;stroke-width:1.51;stroke:#f4862c"/>
                <path d="m112 189 39 12-8-30z" style="fill:#ffb513;stroke-width:1.51;stroke:#ffb513"/>
                <path d="m33 175 32 9-10-34z" style="fill:#e67830;stroke-width:1.51;stroke:#e67830"/>
                <path d="m127-48-37 14-4 35z" style="fill:#c7363c;stroke-width:1.51;stroke:#c7363c"/>
                <path d="m103 197 48 4-39-12z" style="fill:#ffa81d;stroke-width:1.51;stroke:#ffa81d"/>
                <path d="m248 177-6-51-11 1z" style="fill:#ffbd0a;stroke-width:1.51;stroke:#ffbd0a"/>
                <path d="m215 184 16-57-52 47z" style="fill:#ffc300;stroke-width:1.51;stroke:#ffc300"/>
                <path d="m231 127 15-12-49-16z" style="fill:#ffa021;stroke-width:1.51;stroke:#ffa021"/>
                <path d="m242 126 4-11-15 12z" style="fill:#ffa91c;stroke-width:1.51;stroke:#ffa91c"/>
                <path d="m149-33-22-15-41 49z" style="fill:#c7513a;stroke-width:1.51;stroke:#c7513a"/>
                <path d="m190-48h-63l22 15z" style="fill:#c97037;stroke-width:1.51;stroke:#c97037"/>
                <path d="m246 115 7-44-38 2z" style="fill:#fa8b2a;stroke-width:1.51;stroke:#fa8b2a"/>
                <path d="m219 13-16-35-36 8z" style="fill:#c97037;stroke-width:1.51;stroke:#c97037"/>
                <path d="m221-69-18 47 34-48z" style="fill:#c97037;stroke-width:1.51;stroke:#c97037"/>
                <path d="m25 134 8 41 22-25z" style="fill:#df7632;stroke-width:1.51;stroke:#df7632"/>
                <path d="m65 184 13 35 25-22z" style="fill:#f7882a;stroke-width:1.51;stroke:#f7882a"/>
                <path d="m253 71-5-33-33 35z" style="fill:#ec7d2e;stroke-width:1.51;stroke:#ec7d2e"/>
                <path d="m205 199 10-15-36-10z" style="fill:#ffc300;stroke-width:1.51;stroke:#ffc300"/>
                <path d="m-19 91 44 43 8-25z" style="fill:#ce463a;stroke-width:1.51;stroke:#ce463a"/>
                <path d="m52-8-41 7 41 13z" style="fill:#a5093d;stroke-width:1.51;stroke:#a5093d"/>
                <path d="m-4-3 15 2 14-45z" style="fill:#960b3f;stroke-width:1.51;stroke:#960b3f"/>
                <path d="m25 134-27 14 35 27z" style="fill:#d37335;stroke-width:1.51;stroke:#d37335"/>
                <path d="m-19 91 60-25-62-1z" style="fill:#b9213c;stroke-width:1.51;stroke:#b9213c"/>
                <path d="m-21 65 62 1-9-33z" style="fill:#b70d3b;stroke-width:1.51;stroke:#b70d3b"/>
                <path d="m151 201 54-2-26-25z" style="fill:#ffc300;stroke-width:1.51;stroke:#ffc300"/>
                <path d="m221-69-31 21 13 26z" style="fill:#c97037;stroke-width:1.51;stroke:#c97037"/>
                <path d="m203-22-13-26-23 34z" style="fill:#c97037;stroke-width:1.51;stroke:#c97037"/>
                <path d="m-25 38 4 27 53-32z" style="fill:#a9083d;stroke-width:1.51;stroke:#a9083d"/>
                <path d="m50 244 28-25-13-35z" style="fill:#ee7f2e;stroke-width:1.51;stroke:#ee7f2e"/>
                <path d="m103 197 50 56-2-52z" style="fill:#ffb513;stroke-width:1.51;stroke:#ffb513"/>
                <path d="m151 201 39 31 15-33z" style="fill:#ffc300;stroke-width:1.51;stroke:#ffc300"/>
                <path d="m50 244 15-60-52 42z" style="fill:#e27631;stroke-width:1.51;stroke:#e27631"/>
                <path d="m11-1-36 39 57-5z" style="fill:#a00a3d;stroke-width:1.51;stroke:#a00a3d"/>
                <path d="m25-46-14 45 41-7z" style="fill:#a0093e;stroke-width:1.51;stroke:#a0093e"/>
                <path d="m25-46 27 38-2-63z" style="fill:#a7083d;stroke-width:1.51;stroke:#a7083d"/>
                <path d="m-4-3-21 41 36-39z" style="fill:#960b3f;stroke-width:1.51;stroke:#960b3f"/>
                <path d="m-21 65-20 19 22 7z" style="fill:#bb263c;stroke-width:1.51;stroke:#bb263c"/>
                <path d="m237 229 11-52-33 7z" style="fill:#ffc300;stroke-width:1.51;stroke:#ffc300"/>
                <path d="m215 184 33-7-17-50z" style="fill:#ffc300;stroke-width:1.51;stroke:#ffc300"/>
                <path d="m242 126 6 51-2-62z" style="fill:#ffb90f;stroke-width:1.51;stroke:#ffb90f"/>
                <path d="m246 115 2 62 5-106z" style="fill:#ffa71d;stroke-width:1.51;stroke:#ffa71d"/>
                <path d="m-2 148-5 20 40 7z" style="fill:#ce7136;stroke-width:1.51;stroke:#ce7136"/>
                <path d="m-47 139 40 29 5-20z" style="fill:#c97037;stroke-width:1.51;stroke:#c97037"/>
                <path d="m50-71 2 63 38-26z" style="fill:#b3193c;stroke-width:1.51;stroke:#b3193c"/>
                <path d="m78 219 8 18 17-40z" style="fill:#fb8c29;stroke-width:1.51;stroke:#fb8c29"/>
                <path d="m50 244 36-7-8-18z" style="fill:#f2832d;stroke-width:1.51;stroke:#f2832d"/>
                <path d="m-25 38-12 26 16 1z" style="fill:#ae103c;stroke-width:1.51;stroke:#ae103c"/>
                <path d="m-19 91-28 48 45 9z" style="fill:#c7573a;stroke-width:1.51;stroke:#c7573a"/>
                <path d="m-37 64-4 20 20-19z" style="fill:#b71f3c;stroke-width:1.51;stroke:#b71f3c"/>
                <path d="m153 253 37-21-39-31z" style="fill:#ffc300;stroke-width:1.51;stroke:#ffc300"/>
                <path d="m205 199 32 30-22-45z" style="fill:#ffc300;stroke-width:1.51;stroke:#ffc300"/>
                <path d="m221-69-171-2 77 23z" style="fill:#c85e39;stroke-width:1.51;stroke:#c85e39"/>
                <path d="m127-48-77-23 40 37z" style="fill:#c12c3c;stroke-width:1.51;stroke:#c12c3c"/>
                <path d="m86 237 67 16-50-56z" style="fill:#ffa021;stroke-width:1.51;stroke:#ffa021"/>
                <path d="m190-48 31-21-94 21z" style="fill:#c97037;stroke-width:1.51;stroke:#c97037"/>
                <path d="m267-26-64 4 16 35z" style="fill:#c97037;stroke-width:1.51;stroke:#c97037"/>
                <path d="m248 38 19-64-48 39z" style="fill:#ce7136;stroke-width:1.51;stroke:#ce7136"/>
                <path d="m253 71 14-97-19 64z" style="fill:#d97434;stroke-width:1.51;stroke:#d97434"/>
                <path d="m248 177 19-203-14 97z" style="fill:#f3842c;stroke-width:1.51;stroke:#f3842c"/>
                <path d="m86 237 72 21-5-5z" style="fill:#ffb215;stroke-width:1.51;stroke:#ffb215"/>
                <path d="m13 226 52-42-32-9z" style="fill:#df7632;stroke-width:1.51;stroke:#df7632"/>
                <path d="m-7 168 20 58 20-51z" style="fill:#d07236;stroke-width:1.51;stroke:#d07236"/>
                <path d="m-41 84-6 55 28-48z" style="fill:#c73c3b;stroke-width:1.51;stroke:#c73c3b"/>
                <path d="m153 253 5 5 32-26z" style="fill:#ffc300;stroke-width:1.51;stroke:#ffc300"/>
                <path d="m50 244 108 14-72-21z" style="fill:#ff9127;stroke-width:1.51;stroke:#ff9127"/>
                <path d="m-24 227 37-1-20-58z" style="fill:#c97037;stroke-width:1.51;stroke:#c97037"/>
                <path d="m211 267 26-38-47 3z" style="fill:#ffc300;stroke-width:1.51;stroke:#ffc300"/>
                <path d="m190 232 47-3-32-30z" style="fill:#ffc300;stroke-width:1.51;stroke:#ffc300"/>
                <path d="m267-26-30-44-34 48z" style="fill:#c97037;stroke-width:1.51;stroke:#c97037"/>
                <path d="m221-69 16-1-187-1z" style="fill:#c97037;stroke-width:1.51;stroke:#c97037"/>
                <path d="m50-71-62 19 37 6z" style="fill:#9b0a3e;stroke-width:1.51;stroke:#9b0a3e"/>
                <path d="m25-46-37-6 8 49z" style="fill:#910c3f;stroke-width:1.51;stroke:#910c3f"/>
                <path d="m-4-3-38-9 17 50z" style="fill:#940c3f;stroke-width:1.51;stroke:#940c3f"/>
                <path d="m-25 38-31-31 19 57z" style="fill:#a4093d;stroke-width:1.51;stroke:#a4093d"/>
                <path d="m-37 64-19-57 15 77z" style="fill:#ac0a3c;stroke-width:1.51;stroke:#ac0a3c"/>
                <path d="m-41 84-15-77 9 132z" style="fill:#ba243c;stroke-width:1.51;stroke:#ba243c"/>
                <path d="m-12-52-30 40 38 9z" style="fill:#900c3f;stroke-width:1.51;stroke:#900c3f"/>
                <path d="m-42-12-14 19 31 31z" style="fill:#960b3f;stroke-width:1.51;stroke:#960b3f"/>
                <path d="m-47 139 4 46 36-17z" style="fill:#c97037;stroke-width:1.51;stroke:#c97037"/>
                <path d="m13 226 14 28 23-10z" style="fill:#da7533;stroke-width:1.51;stroke:#da7533"/>
                <path d="m50 244-23 10 131 4z" style="fill:#f5862c;stroke-width:1.51;stroke:#f5862c"/>
                <path d="m0 269 27-15-14-28z" style="fill:#d17236;stroke-width:1.51;stroke:#d17236"/>
                <path d="m158 258 53 9-21-35z" style="fill:#ffc300;stroke-width:1.51;stroke:#ffc300"/>
                <path d="m0 269 211-2-53-9z" style="fill:#ffa91c;stroke-width:1.51;stroke:#ffa91c"/>
                <path d="m-42-12 2-32-16 51z" style="fill:#900c3f;stroke-width:1.51;stroke:#900c3f"/>
                <path d="m-12-52-28 8-2 32z" style="fill:#900c3f;stroke-width:1.51;stroke:#900c3f"/>
                <path d="m50-71-90 27 28-8z" style="fill:#900c3f;stroke-width:1.51;stroke:#900c3f"/>
                <path d="m-43 185 19 42 17-59z" style="fill:#c97037;stroke-width:1.51;stroke:#c97037"/>
                <path d="m-24 227 24 42 13-43z" style="fill:#c97037;stroke-width:1.51;stroke:#c97037"/>
                <path d="m27 254-27 15 158-11z" style="fill:#ec7e2e;stroke-width:1.51;stroke:#ec7e2e"/>
                <path d="m-43 185-16 28 35 14z" style="fill:#c97037;stroke-width:1.51;stroke:#c97037"/>
                <path d="m-24 227-39 26 63 16z" style="fill:#c97037;stroke-width:1.51;stroke:#c97037"/>
                <path d="m-47 139-12 74 16-28z" style="fill:#c97037;stroke-width:1.51;stroke:#c97037"/>
                <path d="m-56 7-3 206 12-74z" style="fill:#c7503a;stroke-width:1.51;stroke:#c7503a"/>
                <path d="m237 229 13 39-2-91z" style="fill:#ffc300;stroke-width:1.51;stroke:#ffc300"/>
                <path d="m248 177 2 91 17-294z" style="fill:#ffb90f;stroke-width:1.51;stroke:#ffb90f"/>
                <path d="m211 267 39 1-13-39z" style="fill:#ffc300;stroke-width:1.51;stroke:#ffc300"/>
                <path d="m0 269 250-1-39-1z" style="fill:#ffc300;stroke-width:1.51;stroke:#ffc300"/>
                <path d="m-56 7-7 246 4-40z" style="fill:#c97037;stroke-width:1.51;stroke:#c97037"/>
                <path d="m-59 213-4 40 39-26z" style="fill:#c97037;stroke-width:1.51;stroke:#c97037"/>
            </g>
        </pattern>
    </defs>
    <g transform="translate(0 -233.1)" style="display:none">
        <path d="m87.109 154.73h94.843l-49.157 56h-94.843z" style="fill-rule:evenodd;fill:#ccc;paint-order:normal"/>
        <path d="m87.109 143.55h94.843l-49.157 56h-94.843z" style="fill-rule:evenodd;fill:#828282;paint-order:normal"/>
        <path d="m87.109 131.15h94.843l-49.157 56h-94.843z" style="fill-rule:evenodd;paint-order:normal"/>
        <g transform="matrix(.59687 0 0 .59687 200.16 132.51)">
            <rect x="-64.145" y="103.5" width="24.965" height="20.58" style="fill-rule:evenodd;paint-order:normal"/>
            <rect transform="rotate(45)" x="49.52" y="115.44" width="10.511" height="25.135"
                  style="fill-rule:evenodd;paint-order:normal"/>
        </g>
        <g transform="matrix(.59687 0 0 .59687 218.22 132.51)">
            <rect x="-64.145" y="103.5" width="24.965" height="20.58" style="fill-rule:evenodd;paint-order:normal"/>
            <rect transform="rotate(45)" x="49.52" y="115.44" width="10.511" height="25.135"
                  style="fill-rule:evenodd;paint-order:normal"/>
        </g>
        <g transform="matrix(-.59687 0 0 -.59687 18.212 201.31)">
            <rect x="-64.145" y="103.5" width="24.965" height="20.58" style="fill-rule:evenodd;paint-order:normal"/>
            <rect transform="rotate(45)" x="49.52" y="115.44" width="10.511" height="25.135"
                  style="fill-rule:evenodd;paint-order:normal"/>
        </g>
        <g transform="matrix(-.59687 0 0 -.59687 .15306 201.31)">
            <rect x="-64.145" y="103.5" width="24.965" height="20.58" style="fill-rule:evenodd;paint-order:normal"/>
            <rect transform="rotate(45)" x="49.52" y="115.44" width="10.511" height="25.135"
                  style="fill-rule:evenodd;paint-order:normal"/>
        </g>
    </g>
    <g transform="translate(0 -233.1)" style="display:none">
        <rect x="36.215" y="96.949" width="66.016" height="66.016"
              style="fill-rule:evenodd;fill:#afe9af;paint-order:normal"/>
        <rect x="42.496" y="100.82" width="66.016" height="66.016"
              style="fill-rule:evenodd;fill:#87de87;paint-order:normal"/>
        <rect x="47.788" y="106.12" width="66.016" height="66.016"
              style="fill-rule:evenodd;fill:#37c837;paint-order:normal"/>
        <g transform="rotate(180 27.343 109.22)" style="fill:#87de87" aria-label=",,">
            <path d="m26.912 108.57q1.3208 0 2.4384.9652 1.1684.9144 1.8288 2.54.7112 1.5748.7112 3.5052 0 3.1496-1.1684 6.2992-1.1176 3.1496-2.794 5.4356-1.6256 2.286-3.0988 2.9972h-.0508l-2.4384-1.6256v-.8128q1.2192-1.016 2.1336-3.81.9144-2.7432.9144-5.1308 0-.8128-.3556-1.3716-.3048-.5588-.9652-1.2192-.8128-.8128-1.27-1.6256-.4572-.8636-.4572-2.2352 0-1.778 1.1684-2.8448 1.2192-1.0668 3.0988-1.0668z"
                  style="fill:#87de87;stroke-width:.26458"/>
            <path d="m38.058 108.57q1.3208 0 2.4384.9652 1.1684.9144 1.8288 2.54.7112 1.5748.7112 3.5052 0 3.1496-1.1684 6.2992-1.1176 3.1496-2.794 5.4356-1.6256 2.286-3.0988 2.9972h-.0508l-2.4384-1.6256v-.8128q1.2192-1.016 2.1336-3.81.9144-2.7432.9144-5.1308 0-.8128-.3556-1.3716-.3048-.5588-.9652-1.2192-.8128-.8128-1.27-1.6256-.4572-.8636-.4572-2.2352 0-1.778 1.1684-2.8448 1.2192-1.0668 3.0988-1.0668z"
                  style="fill:#87de87;stroke-width:.26458"/>
        </g>
        <g transform="translate(95.601 53.012)" style="fill:#87de87" aria-label=",,">
            <path d="m26.912 108.57q1.3208 0 2.4384.9652 1.1684.9144 1.8288 2.54.7112 1.5748.7112 3.5052 0 3.1496-1.1684 6.2992-1.1176 3.1496-2.794 5.4356-1.6256 2.286-3.0988 2.9972h-.0508l-2.4384-1.6256v-.8128q1.2192-1.016 2.1336-3.81.9144-2.7432.9144-5.1308 0-.8128-.3556-1.3716-.3048-.5588-.9652-1.2192-.8128-.8128-1.27-1.6256-.4572-.8636-.4572-2.2352 0-1.778 1.1684-2.8448 1.2192-1.0668 3.0988-1.0668z"
                  style="fill:#87de87;stroke-width:.26458"/>
            <path d="m38.058 108.57q1.3208 0 2.4384.9652 1.1684.9144 1.8288 2.54.7112 1.5748.7112 3.5052 0 3.1496-1.1684 6.2992-1.1176 3.1496-2.794 5.4356-1.6256 2.286-3.0988 2.9972h-.0508l-2.4384-1.6256v-.8128q1.2192-1.016 2.1336-3.81.9144-2.7432.9144-5.1308 0-.8128-.3556-1.3716-.3048-.5588-.9652-1.2192-.8128-.8128-1.27-1.6256-.4572-.8636-.4572-2.2352 0-1.778 1.1684-2.8448 1.2192-1.0668 3.0988-1.0668z"
                  style="fill:#87de87;stroke-width:.26458"/>
        </g>
    </g>
    <g transform="translate(0 -233.1)" style="display:none">
        <rect transform="matrix(.85294 .52201 -.85294 .52201 0 0)" x="111.48" y="38.871" width="47.016" height="47.016"
              style="fill:none;paint-order:normal;stroke-linecap:round;stroke-linejoin:round;stroke-width:1.907;stroke:#000"/>
        <path d="m21.825 109.64 40.102 24.543 40.102-24.543"
              style="fill:none;stroke-linecap:round;stroke-width:1.7995;stroke:#000"/>
        <path d="m21.825 116.24 40.102 24.543 40.102-24.543"
              style="fill:none;stroke-linecap:round;stroke-width:1.7995;stroke:#000"/>
        <text x="-21.916101" y="73.02813"
              style="fill:#000000;font-family:sans-serif;font-size:10.583px;letter-spacing:-17.754px;line-height:1.25;stroke-width:.26458;word-spacing:0px"
              xml:space="preserve"><tspan x="-21.916101" y="82.391899" style="stroke-width:.26458"/></text>
        <path d="m62.396 83.934-30.005 18.363"
              style="fill:none;paint-order:normal;stroke-linecap:round;stroke-linejoin:bevel;stroke-width:2;stroke:#000"/>
        <path d="m67.941 87.021-30.005 18.363"
              style="display:inline;fill:none;paint-order:normal;stroke-linecap:round;stroke-linejoin:bevel;stroke-width:2;stroke:#000"/>
        <path d="m72.727 90.512-30.005 18.363"
              style="display:inline;fill:none;paint-order:normal;stroke-linecap:round;stroke-linejoin:bevel;stroke-width:2;stroke:#000"/>
        <rect transform="matrix(.85294 .52201 -.85294 .52201 0 0)" x="134.93" y="62.548" width="16.406" height="16.406"
              style="display:inline;fill:none;paint-order:normal;stroke-linecap:round;stroke-linejoin:round;stroke-width:2.1194;stroke:#000"/>
        <path d="m78.341 93.416-10.53 6.4444"
              style="display:inline;fill:none;paint-order:normal;stroke-linecap:round;stroke-linejoin:bevel;stroke-width:2;stroke:#000"/>
        <path d="m82.367 96.082-10.53 6.4444"
              style="display:inline;fill:none;paint-order:normal;stroke-linecap:round;stroke-linejoin:bevel;stroke-width:2;stroke:#000"/>
        <path d="m86.525 98.671-10.53 6.4444"
              style="display:inline;fill:none;paint-order:normal;stroke-linecap:round;stroke-linejoin:bevel;stroke-width:2;stroke:#000"/>
        <path d="m90.928 101.51-10.53 6.4444"
              style="display:inline;fill:none;paint-order:normal;stroke-linecap:round;stroke-linejoin:bevel;stroke-width:2;stroke:#000"/>
        <path d="m61.927 78.482 40.102 24.543" style="fill:none;stroke-width:.26458px;stroke:#000"/>
    </g>
    <g transform="translate(0,-233.1)">
        <g transform="matrix(.90258 -.55397 .90258 .55397 0 0)" style="display:none;stroke-width:.20728"
           aria-label="&gt;_ ">
            <path d="m-14.607 40.38.45439-1.3632 7.6258 3.24v1.4027l-7.6258 3.24-.45439-1.3632 6.2627-2.588z"
                  style="stroke-width:.20728"/>
            <path d="m-8.1843 49.863h9.5619v1.3829h-9.5619z" style="stroke-width:.20728"/>
        </g>
        <g transform="translate(-15.497,6.4256)">
            <g transform="translate(-9.9845,233.26)">
                <path transform="matrix(.85294 .52201 -.85294 .52201 0 0)" d="m33.483-44.756h47.016v47.016h-47.016z"
                      style="fill-rule:evenodd;paint-order:normal;stroke-linecap:round;stroke-linejoin:round;stroke-width:1.907;stroke:#000"/>
                <path d="m26.632 25.278 40.102 24.543 40.102-24.543"
                      style="fill:none;stroke-linecap:round;stroke-linejoin:round;stroke-width:1.8;stroke:#000"/>
                <path d="m26.632 31.872 40.102 24.543 40.102-24.543"
                      style="fill:none;stroke-linecap:round;stroke-linejoin:round;stroke-width:1.7995;stroke:#000"/>
                <path d="m66.734-5.8847-40.102 24.543 40.102 24.543 40.102-24.543z"
                      style="fill:url(#fswbf);stroke-linecap:round;stroke-linejoin:bevel;stroke-width:1.8;stroke:#000"/>
                <g transform="matrix(1.6602,-1.0189,1.6602,1.0189,-21.28,-142.53)" style="fill:#fff"
                   aria-label="&gt;_ ">
                    <path d="m-53.908 110.49h9.5617"
                          style="fill:#fff;stroke-linecap:round;stroke-width:1.5223;stroke:#fff"/>
                    <path d="m-60.102 106.15 7.8528-3.2597"
                          style="fill:none;stroke-linecap:round;stroke-width:1.5223;stroke:#fff"/>
                    <path d="m-60.102 99.635 7.8528 3.2597"
                          style="fill:none;stroke-linecap:round;stroke-width:1.5223;stroke:#fbfbfb"/>
                </g>
                <g style="stroke-width:.26458" aria-label="Full Stack">
                    <path d="m123.87 6.5662-1.8062-.31609v-1.5805h12.689l.24835 4.2221h-2.032l-.90312-2.461-4.335-.27094v6.2541l2.9577-.06773.45156-2.032h1.5805v6.0283h-1.5579l-.47413-2.0998-2.9577-.09031v5.5542l3.4544.24836v1.4901h-9.0086v-1.4901l1.6934-.24836z"
                          style="stroke-width:.26458"/>
                    <path d="m146.56 21.671q-.81281 0-1.1741-.33867-.36125-.36125-.36125-1.0386v-.49672q-.54187.74507-1.6256 1.3321-1.0838.56445-2.1901.56445-2.2126 0-3.1609-1.0837-.9257-1.1063-.9257-3.6802v-6.2767l-1.0612-.29351v-1.445l4.2447-.29351h.0226l.49672.31609v8.0829q0 1.4676.36124 2.0546.36125.56445 1.287.56445 1.2644 0 2.1223-.85796v-8.1281l-1.3998-.33867v-1.3998l4.4704-.29351h.0677l.54188.31609v10.95h1.1966v1.445q-.76765.15805-1.4224.24836-.63219.09031-1.4902.09031z"
                          style="stroke-width:.26458"/>
                    <path d="m152.1 5.1438-1.5805-.29351v-1.3773l4.5156-.54187h.0677l.65477.47414v16.346l1.4676.2032v1.4901h-6.5702v-1.4901l1.445-.2032z"
                          style="stroke-width:.26458"/>
                    <path d="m159.86 5.1438-1.5805-.29351v-1.3773l4.5156-.54187h.0677l.65476.47414v16.346l1.4676.2032v1.4901h-6.5702v-1.4901l1.445-.2032z"
                          style="stroke-width:.26458"/>
                    <path d="m177.63 21.693q-1.2418 0-2.303-.2032-1.0386-.2032-2.1901-.54187-.74508-.22578-1.0838-.24836l.20321-4.2221h2.0998l.56445 2.89q.24836.29351.90312.51929.67734.22578 1.603.22578 1.3772 0 2.0546-.60961.69992-.60961.69992-1.6708 0-.74507-.45156-1.2869-.42898-.56445-1.2192-1.016-.76765-.47414-2.1223-1.0837-1.7837-.81281-3.0254-2.0546-1.2192-1.2644-1.2192-3.319 0-1.2644.65476-2.303.65476-1.0386 1.9869-1.6708t3.319-.63218q1.1966 0 2.0772.15805.90312.15805 1.9191.42898.54187.18062.83539.2032l-.13547 4.0189h-2.0546l-.51929-2.7771q-.15805-.2032-.7225-.36125-.54187-.18062-1.2192-.18062-1.2418 0-1.874.58703-.60961.58703-.60961 1.5127 0 .81281.51929 1.4224.5193.60961 1.2418 1.0386.74508.4064 2.2578 1.1515 1.1966.58703 2.0772 1.1966.90312.58703 1.5353 1.5353.63219.94828.63219 2.2126 0 1.2418-.60961 2.3933-.58703 1.1515-2.032 1.9191t-3.7931.76765z"
                          style="stroke-width:.26458"/>
                    <path d="m189.36 21.648q-1.4902 0-2.2126-.67734-.69991-.69992-.69991-2.1449v-8.0378h-1.3773v-1.3095l.45156-.18062q.54187-.18062.94827-.38383.45156-.42898.7225-1.1289.33867-.81281.74507-2.2804h2.0998l.13547 3.3867h3.2286v1.8966h-3.1835v5.9832q0 1.2418.0677 1.7385t.24835.65476q.20321.13547.7225.13547 1.0612 0 2.0094-.36125l.47414 1.4224q-.63218.51929-1.874.90312t-2.5062.38383z"
                          style="stroke-width:.26458"/>
                    <path d="m194.44 17.833q0-1.9869 2.0094-3.048 2.032-1.0612 5.3284-1.0837v-.45156q0-.81281-.18062-1.2869-.18063-.47414-.65476-.69992-.47414-.24836-1.3998-.24836-1.1063 0-1.9869.27094-.85797.24836-1.8062.67734l-.76766-1.6256q.36125-.29351 1.1741-.69992.81281-.42898 1.9417-.7225 1.1515-.31609 2.3933-.31609 1.8062 0 2.8222.47414 1.0386.47414 1.4676 1.4676.45156.99343.45156 2.7094v6.7057h1.174v1.4224q-.51929.11289-1.445.22578t-1.5805.11289q-.85796 0-1.1515-.24836-.27093-.24836-.27093-.99343v-.51929q-.56445.67734-1.5127 1.2192-.94828.51929-2.1901.51929-1.0612 0-1.9417-.45156-.85797-.47414-1.3773-1.3321-.49672-.88054-.49672-2.0772zm5.5768 1.7837q.4064 0 .90312-.22578.49671-.24836.85796-.58703v-3.5899q-1.7611 0-2.619.63218-.83538.63218-.83538 1.6256 0 1.016.45156 1.5805t1.2418.56445z"
                          style="stroke-width:.26458"/>
                    <path d="m207.39 15.259q0-2.0094.81281-3.5222t2.2804-2.3255q1.4676-.83539 3.3867-.83539.94828 0 1.6256.13547.69991.11289 1.4224.33867.65476.18062.81281.2032l-.15805 4.0866h-2.2804l-.58702-2.5965q-.0677-.29351-.38383-.4064-.29351-.13547-.7225-.13547-1.0612 0-1.6708 1.0386-.58703 1.0386-.58703 3.4544 0 2.303.74508 3.5447.76765 1.2192 2.0546 1.2192 1.6708 0 3.0706-.85796l.60961 1.3321q-.54187.60961-1.7837 1.1966-1.2418.56445-2.7545.56445-2.9577 0-4.4253-1.7385-1.4676-1.7611-1.4676-4.6962z"
                          style="stroke-width:.26458"/>
                    <path d="m220.47 5.1438-1.5353-.29351v-1.3773l4.493-.54187h.0677l.65476.47414v10.544l-.0677 1.1063 4.2447-4.4704-1.6708-.24836v-1.4224h6.1412v1.4224l-1.8514.29351-2.4384 2.3255 3.7254 6.796 1.174.2032v1.4901h-6.2767v-1.4901l1.016-.2032-2.2352-4.4704-1.8288 1.8966.0452 1.1515v1.4224l1.3095.2032v1.4901h-6.209v-1.4901l1.2418-.2032z"
                          style="stroke-width:.26458"/>
                </g>
                <g transform="translate(.072673)">
                    <g style="stroke-width:.26458" aria-label="with">
                        <path d="m121.99 28.565h.889q.1397 0 .2286.06985t.12065.1651l1.2319 4.1402q.0508.2286.0952.4445.0445.20955.0762.42545.0508-.2159.1143-.42545.0635-.2159.13335-.4445l1.3589-4.1656q.0317-.09525.10795-.15875.0826-.0635.2032-.0635h.48895q.127 0 .20955.0635.0825.0635.1143.15875l1.3272 4.1656q.0699.22225.12065.43815.0572.2159.10795.42545.0318-.20955.0825-.43815.0508-.2286.10795-.42545l1.2573-4.1402q.0318-.1016.12065-.1651.0889-.06985.20955-.06985h.8509l-2.0828 6.4326h-.89535q-.1651 0-.2286-.2159l-1.4224-4.3624q-.0508-.14605-.0825-.2921-.0318-.1524-.0635-.29845-.0317.14605-.0635.29845t-.0825.29845l-1.4414 4.3561q-.0699.2159-.26035.2159h-.8509z"
                              style="stroke-width:.26458"/>
                        <path d="m133.81 28.565v6.4326h-1.1303v-6.4326zm.254-2.0193q0 .1651-.0699.31115-.0635.1397-.1778.254-.10795.10795-.254.17145t-.31115.0635-.31115-.0635q-.1397-.0635-.254-.17145-.10795-.1143-.17145-.254-.0635-.14605-.0635-.31115t.0635-.31115q.0635-.1524.17145-.26035.1143-.1143.254-.1778.14605-.0635.31115-.0635t.31115.0635.254.1778q.1143.10795.1778.26035.0699.14605.0699.31115z"
                              style="stroke-width:.26458"/>
                        <path d="m137.75 35.099q-.762 0-1.1748-.42545-.4064-.42545-.4064-1.2256v-3.937h-.7747q-.1016 0-.17145-.05715-.0699-.0635-.0699-.1905v-.45085l1.0541-.13335.26035-1.9876q.0127-.09525.0825-.1524.0699-.0635.1778-.0635h.5715v2.2162h1.8415v.81915h-1.8415v3.8608q0 .4064.19685.60325t.508.19685q.1778 0 .3048-.04445.13335-.0508.2286-.10795.0952-.05715.15875-.1016.0699-.0508.12065-.0508.0889 0 .15875.10795l.3302.53975q-.2921.27305-.70485.4318-.41275.1524-.8509.1524z"
                              style="stroke-width:.26458"/>
                        <path d="m140.54 34.998v-9.3536h1.1303v3.7846q.41275-.43815.9144-.6985.50165-.2667 1.1557-.2667.52705 0 .9271.1778.4064.17145.6731.4953.27305.3175.41275.76835t.1397.99695v4.0958h-1.1303v-4.0958q0-.73025-.33655-1.1303-.3302-.4064-1.016-.4064-.50165 0-.9398.2413-.4318.2413-.8001.65405v4.7371z"
                              style="stroke-width:.26458"/>
                    </g>
                    <g style="stroke-width:.26458" aria-label="Benefits">
                        <path d="m154.05 29.663-1.6934-.31609v-1.5805h3.5673q.76765 0 2.032-.09031.27093-.02258.67734-.04516.4064-.02258.94827-.02258 2.461 0 3.8608.45156t1.9417 1.2869q.56445.83539.56445 2.0998 0 1.6934-1.0612 2.7997-1.0386 1.1063-2.6642 1.3321 2.2578 0 3.5447 1.016 1.3095 1.016 1.3095 2.8674 0 2.4158-1.6708 3.8157-1.6482 1.3998-5.6219 1.3998-.63218 0-1.2192-.04516-.58703-.02258-.83538-.02258-.81281-.06773-1.7611-.06773h-3.6576v-1.4901l1.7385-.24836zm3.8157 5.351q.40641.04516 1.8288.04516 1.2418 0 1.8288-.83539.58703-.85796.58703-2.3933 0-1.4224-.63219-2.0772-.63218-.65476-2.0546-.65476-.33867 0-.79023.04516-.45156.02258-.76766.06773zm0 7.9249q.45156.18062 1.7837.18062 1.6708 0 2.4158-.88054.76765-.88054.76765-2.5513 0-1.5805-.69991-2.2578-.69992-.67734-2.2126-.67734-1.2418 0-2.0546.04516z"
                              style="stroke-width:.26458"/>
                        <path d="m174.5 44.79q-3.0932 0-4.5833-1.7385-1.4902-1.7611-1.4902-4.7865 0-2.0546.76765-3.5447.76766-1.4901 2.1449-2.2578 1.3998-.79023 3.2738-.79023 2.3707 0 3.6125 1.1966 1.2644 1.1966 1.3095 3.3867 0 1.445-.2032 2.3255h-7.0669q.11289 1.9191.9257 2.9351.83539.99343 2.3255.99343.83539 0 1.7385-.27094.9257-.29351 1.4902-.65476l.63218 1.3773q-.58703.65476-2.0094 1.2418-1.3998.58703-2.8674.58703zm1.445-7.6991.0226-.94828q0-1.4224-.38382-2.1675-.38383-.74507-1.3095-.74507-.94827 0-1.4676.83539-.51929.81281-.56445 3.0255z"
                              style="stroke-width:.26458"/>
                        <path d="m182.46 34.359-1.3321-.4064v-1.7611l4.1092-.49672h.0677l.58703.47414v.83539l-.0226.51929q.79023-.74507 2.0094-1.2644t2.5513-.51929q1.3547 0 2.1223.49672.79023.47414 1.1289 1.5353.36124 1.0612.36124 2.89v6.1864l1.2644.18062v1.5127h-6.1412v-1.4901l1.1063-.2032v-6.1638q0-1.0837-.15805-1.6708-.13546-.60961-.49671-.88054t-1.0386-.27094q-1.0386 0-2.3481.97085v8.0152l1.2418.2032v1.4901h-6.2541v-1.4901l1.2418-.2032z"
                              style="stroke-width:.26458"/>
                        <path d="m202.63 44.79q-3.0932 0-4.5833-1.7385-1.4902-1.7611-1.4902-4.7865 0-2.0546.76765-3.5447t2.1449-2.2578q1.3998-.79023 3.2738-.79023 2.3707 0 3.6125 1.1966 1.2644 1.1966 1.3095 3.3867 0 1.445-.2032 2.3255h-7.0669q.11289 1.9191.9257 2.9351.83538.99343 2.3255.99343.83539 0 1.7385-.27094.92569-.29351 1.4901-.65476l.63219 1.3773q-.58703.65476-2.0094 1.2418-1.3998.58703-2.8674.58703zm1.445-7.6991.0226-.94828q0-1.4224-.38383-2.1675-.38382-.74507-1.3095-.74507-.94828 0-1.4676.83539-.51929.81281-.56445 3.0255z"
                              style="stroke-width:.26458"/>
                        <path d="m210.82 33.885h-1.7611v-1.3998l1.7611-.45156v-.94828q0-1.5127.8128-2.7545.81281-1.2418 2.1675-1.9643 1.3773-.7225 2.9577-.7225.83539 0 1.5127.22578v3.2738q-.24836-.27094-.97086-.51929-.72249-.27094-1.4224-.27094-.74508 0-1.0612.38383t-.31609 1.2644v2.0094h2.7094v1.874h-2.7094v8.9635l2.2804.2032v1.4901h-7.6991v-1.4901l1.7385-.2032zm10.589-3.8383q-.88054 0-1.4224-.51929-.54187-.51929-.54187-1.3321 0-.94828.58703-1.5579.60961-.60961 1.6256-.60961 1.016 0 1.5579.51929.54187.51929.54187 1.3321 0 .97085-.60961 1.5805-.6096.58703-1.7159.58703zm-1.3773 4.3124-1.5127-.42898v-1.6934l4.5156-.54187h.0452l.69992.47414v10.679l1.3547.2032v1.4901h-6.5025v-1.4901l1.3998-.2032z"
                              style="stroke-width:.26458"/>
                        <path d="m230.52 44.745q-1.4902 0-2.2126-.67734-.69992-.69992-.69992-2.1449v-8.0378h-1.3772v-1.3095l.45156-.18062q.54187-.18062.94827-.38383.45156-.42898.7225-1.1289.33867-.81281.74507-2.2804h2.0998l.13546 3.3867h3.2287v1.8966h-3.1835v5.9832q0 1.2418.0677 1.7385t.24836.65476q.2032.13547.7225.13547 1.0612 0 2.0094-.36125l.47414 1.4224q-.63219.51929-1.874.90312t-2.5062.38383z"
                              style="stroke-width:.26458"/>
                        <path d="m238.74 42.668q.15805.24836.7225.45156.58703.2032 1.174.2032.9257 0 1.3998-.38383.49672-.4064.49672-1.0386 0-.67734-.63219-1.1063-.63218-.45156-2.0772-1.0837l-.85797-.38382q-1.4676-.65476-2.2126-1.5805-.7225-.94828-.7225-2.3933 0-1.0386.60961-1.8514.6096-.83539 1.7611-1.3095t2.7094-.47414q1.0838 0 1.874.13547t1.603.33867q.54188.15805.81281.18062v3.0706h-2.0094l-.58703-1.7385q-.11289-.2032-.54187-.36125-.42898-.18062-.97085-.18062-.85797 0-1.3547.38383-.49672.36125-.49672.99343 0 .7225.56445 1.1515.56445.4064 1.8062.97085l.47414.2032q1.8288.76765 2.8674 1.6708 1.0386.88054 1.0386 2.4384 0 1.6708-1.3321 2.7545-1.3321 1.0612-3.9286 1.0612-1.1966 0-2.1223-.2032-.9257-.18062-2.032-.49672l-.74508-.2032v-3.0029h2.1449z"
                              style="stroke-width:.26458"/>
                    </g>
                </g>
            </g>
        </g>
    </g>
</svg>
