<svg width="200" height="216" viewBox="0 0 200 216" fill="none" xmlns="http://www.w3.org/2000/svg">
<path fill-rule="evenodd" clip-rule="evenodd" d="M183.682 152.524C183.646 154.135 184.819 154.539 184.733 156.202C183.533 158.121 181.451 157.686 179.741 158.566C177.349 159.802 176.93 163.1 173.958 163.56C172.066 161.126 175.007 158.979 176.063 157.253C177.236 155.335 178.811 152.713 179.479 150.683C179.754 149.844 179.479 148.991 179.741 148.057C180.327 145.966 181.986 144.341 182.895 142.275C183.35 141.237 183.693 139.907 184.208 138.597C185.291 135.838 187.348 129.959 187.098 126.507C186.981 124.894 185.974 123.38 186.046 121.778C186.123 120.081 187.387 118.572 187.623 116.785C188.086 113.318 186.674 109.433 186.31 106.538C186.204 105.69 186.45 104.722 186.31 103.91C186.085 102.617 185.239 101.295 184.995 99.9688C184.361 96.4922 184.887 92.9449 184.733 89.4534C184.639 87.2987 183.982 85.0444 184.733 82.8851C183.599 81.9651 182.926 80.3409 181.579 78.9442C180.402 77.7218 178.475 76.9886 178.164 75.2647C177.961 74.1428 178.714 72.9769 178.689 71.8506C178.638 69.3425 176.533 66.9737 177.638 64.492C176.979 63.8373 176.894 62.6104 176.325 61.8632C176.37 60.5499 175.438 62.6932 175.274 61.3395C174.238 59.3073 174.024 56.4556 171.594 55.8194C169.891 57.1148 171.743 58.3848 171.594 60.0247C171.429 61.8569 169.661 62.9664 167.653 64.492C165.031 66.4818 162.66 69.5814 158.455 66.8563C155.79 67.4152 153.221 67.9528 152.413 66.0685C152.061 65.2498 152.537 65.0287 152.938 63.7023C153.216 62.7769 153.173 61.5088 153.462 60.8116C154.252 58.91 156.74 58.13 156.354 56.6072C155.111 55.4968 152.097 57.617 151.098 55.5559C150.793 52.3628 153.392 52.0693 155.826 51.6165C157.094 50.8673 156.684 48.442 158.193 47.9362C160.113 48.7152 166.114 51.2957 166.601 47.411C166.897 45.0448 162.012 42.014 161.347 40.0514C160.774 39.5032 161.478 39.3024 161.347 38.4764C158.475 35.3021 155.034 32.7016 152.413 29.2786C149.288 28.8978 147.966 26.716 145.579 25.601C144.839 23.0972 143.032 21.6644 140.848 20.6067C139.768 19.7785 139.975 21.705 139.009 20.8702C134.926 18.9104 131.323 16.4693 126.66 15.0881C125.665 14.7093 126.154 15.8126 125.344 15.6136C123.4 13.9127 120.661 14.2624 118.513 13.249C116.837 12.4593 115.765 10.5778 114.046 9.83146C110.942 8.48662 107.697 8.42389 104.848 6.41554C98.9527 8.26102 92.6741 7.25547 87.5054 9.30625C85.6915 10.0253 83.8911 12.1625 80.41 11.4107C79.0586 11.9702 80.1709 10.0702 79.0947 10.3594C71.1172 11.4468 63.9632 14.9868 57.0212 17.9806C53.31 19.5775 49.3528 20.2886 45.9845 21.9218C44.4413 22.669 43.0493 23.9274 41.5174 24.8096C39.9133 25.7393 38.201 26.3757 36.7887 27.4377C35.3538 28.5163 34.4536 29.9176 33.109 31.1178C31.8569 32.2343 30.2979 33.0039 28.9037 34.0076C26.2821 35.9005 23.6786 39.445 19.4439 38.4764C17.3796 33.9424 20.5359 29.9237 22.8596 27.176C24.0847 25.728 26.2054 24.0809 27.8523 22.1835C29.9753 19.7379 31.6042 17.3372 34.1603 15.8753C35.6245 15.0408 37.3662 14.689 38.8891 13.7751C40.2157 12.9785 41.3776 11.6751 42.8305 10.8828C43.751 10.384 44.9895 10.3258 45.9845 9.83146C47.9337 8.86541 49.2016 7.65208 50.9772 6.94165C52.9558 6.15382 54.7967 5.69111 57.0212 5.10251C61.3033 3.96815 65.8312 3.99476 70.4223 2.7361C71.7827 2.3661 73.2515 1.35358 74.6277 1.16136C75.8369 0.992154 77.0778 1.46795 78.569 1.42576C80.2656 1.37117 82.3502 0.748942 84.3514 0.633431C88.4642 0.403531 92.4191 0.624641 95.9138 0.110026C98.4925 -0.271696 98.7316 0.360221 100.643 1.68477C101.671 2.39949 102.878 4.22466 104.584 4.57728C106.831 5.03978 108.898 3.90475 111.154 3.78924C113.85 3.65003 117.261 3.68613 119.826 4.05117C122.635 4.45298 126.226 7.19367 130.075 7.99298C132.534 8.50513 134.026 8.54551 135.855 9.30625C137.439 9.96457 138.721 10.7224 140.325 11.9341C143.352 14.2236 146.173 15.8101 149.259 17.191C151.576 18.2281 153.785 19.6118 155.826 21.1322C156.51 21.6398 157.408 21.994 157.929 22.4452C158.827 23.2233 159.237 24.3717 160.034 25.0731C161.16 26.0752 162.75 26.4628 163.973 27.4377C164.99 28.2519 166.762 30.0058 167.653 31.1178C168.214 31.821 168.413 32.8002 168.966 33.4824C169.458 34.0886 170.238 34.434 170.807 35.0589C171.847 36.2073 172.639 37.7732 173.697 39.0001C175.867 41.5179 178.286 43.5871 180.002 46.3596C181.755 49.1928 183.475 52.0923 185.259 54.7678C187.152 57.6064 189.092 60.6812 190.252 63.4406C191.348 66.0509 191.799 68.79 192.88 71.3227C193.868 73.6352 195.337 75.7114 195.77 78.157C195.612 78.96 195.213 79.524 194.983 80.2572C196.034 83.2174 196.059 86.7161 196.034 90.5066C196.018 92.6426 196.668 94.8177 196.822 97.0738C197.061 100.573 196.785 104.833 196.558 108.902C196.287 113.796 195.77 117.943 193.406 120.727C193.275 121.575 194.631 122.279 193.932 122.827C192.19 126.331 192.851 130.234 191.829 134.128C191.057 137.07 188.521 139.222 188.413 142.013C188.368 143.186 189.101 144.312 188.939 145.429C188.472 148.616 184.149 149.632 183.682 152.524Z" fill="#916B55" fill-opacity="0.24"/>
<path fill-rule="evenodd" clip-rule="evenodd" d="M199.976 1.68436C199.976 2.3005 199.976 2.91212 199.976 3.52712C199.387 3.41251 199.87 2.22988 199.712 1.68436C199.8 1.68436 199.888 1.68436 199.976 1.68436Z" fill="#916B55" fill-opacity="0.24"/>
<path fill-rule="evenodd" clip-rule="evenodd" d="M135.856 43.9948C136.099 45.5134 138.719 47.3313 138.746 49.249C138.773 51.0769 137.205 52.6173 135.33 52.4032C132.117 52.0357 132.661 44.8902 135.856 43.9948Z" fill="#916B55" fill-opacity="0.24"/>
<path fill-rule="evenodd" clip-rule="evenodd" d="M175.274 143.851C175.039 143.968 174.802 144.081 174.748 144.377C173.819 144.519 173.595 143.953 173.171 143.59C173.397 142.13 175.425 141.887 175.274 143.851Z" fill="#916B55" fill-opacity="0.24"/>
<path fill-rule="evenodd" clip-rule="evenodd" d="M1.3118 144.377C1.47875 144.31 1.51258 144.138 1.83746 144.116C4.04842 143.955 5.75855 148.269 3.15052 149.108C0.276267 150.033 -1.26464 145.413 1.3118 144.377Z" fill="#916B55" fill-opacity="0.24"/>
<path fill-rule="evenodd" clip-rule="evenodd" d="M164.763 174.069C165.43 174.103 165.78 174.453 165.814 175.121C166.604 174.863 166.987 174.194 168.178 174.333C166.477 176.923 164.781 179.52 160.821 179.852C161.351 177.67 163.062 176.661 164.763 175.649C164.185 175.096 164.185 174.622 164.763 174.069Z" fill="#916B55" fill-opacity="0.24"/>
<path fill-rule="evenodd" clip-rule="evenodd" d="M79.0948 205.867C80.2521 206.207 78.63 204.312 79.6204 204.03C80.4958 200.914 84.3695 201.964 88.8185 201.663C91.0633 201.513 93.3284 200.768 95.1265 200.612C100.791 200.118 106.831 200.824 112.469 200.35C114.815 200.152 117.268 199.848 119.3 199.56C122.353 199.132 124.853 197.537 127.183 199.299C127.56 205.059 119.695 206.011 114.833 207.444C113.11 207.954 111.436 209.043 109.841 209.285C108.487 209.49 106.903 209.111 105.635 209.285C103.862 209.526 102.31 210.932 100.643 211.123C99.0566 211.306 97.4773 210.496 95.9138 210.336C91.5777 209.886 87.1738 210.176 83.3001 209.285C81.951 208.973 80.6988 208.222 79.3587 207.969C77.2538 207.574 75.0767 208.067 73.5764 206.658C68.0648 206.496 62.7923 206.194 58.0726 204.03C56.0624 203.105 54.244 202.004 52.2925 200.874C50.3229 199.734 48.024 199.107 46.2462 197.986C45.0753 197.244 44.1458 195.953 42.8305 195.094C41.5648 194.261 40.3105 193.648 39.1531 192.73C38.0296 191.838 36.8744 190.721 35.7351 189.839C34.4582 188.844 33.0887 188.125 32.3194 187.211C31.7418 186.523 31.2681 185.153 30.2167 183.795C29.1158 182.367 26.5574 180.919 28.642 179.59C39.2659 183.532 48.9625 189.754 59.9136 194.043C61.5492 194.683 63.5165 194.986 65.4297 195.619C66.7427 196.053 68.6333 197.131 70.6863 197.722C73.1748 198.438 75.0496 198.58 75.943 199.56C77.59 201.375 76.4168 205.364 79.0948 205.867Z" fill="#916B55" fill-opacity="0.24"/>
<path fill-rule="evenodd" clip-rule="evenodd" d="M155.565 184.318C156.034 184.512 155.603 184.797 155.565 185.108C152.275 187.51 148.747 189.677 146.367 192.991C146.543 194.769 148.011 194.033 147.946 195.619C147.829 198.327 143.483 197.882 144.792 194.306C143.585 192.885 140.857 193.833 141.376 191.152C141.769 189.106 146.184 189.056 149.259 188.26C152.722 187.367 153.875 185 155.565 184.318Z" fill="#916B55" fill-opacity="0.24"/>
<path fill-rule="evenodd" clip-rule="evenodd" d="M135.856 195.094C135.973 195.329 136.086 195.566 136.381 195.62C136.65 197.905 133.279 198.774 132.44 196.935C133.588 196.33 134.272 195.261 135.856 195.094Z" fill="#916B55" fill-opacity="0.24"/>
<path fill-rule="evenodd" clip-rule="evenodd" d="M180.528 210.598C179.754 211.771 178.99 212.854 177.376 213.752C176.248 214.378 174.06 215.461 172.646 215.065C170.721 214.525 169.88 207.267 170.807 204.554C172.206 200.458 178.495 200.001 180.002 203.241C180.975 205.323 180.113 207.186 180.528 210.598Z" fill="#916B55" fill-opacity="0.24"/>
</svg>
